<svg id="Layer_1" data-name="Layer 1" xmlns="http://www.w3.org/2000/svg" viewBox="0 0 486.5 390.5"><defs><style>.cls-1{fill:#ccc;}.cls-2{fill:#353535;}.cls-3{fill:#f2c85f;}.cls-4{fill:#ffe36e;}</style></defs><title>dooooooooooty8======D</title><rect class="cls-1" width="486.5" height="390.5" rx="42.15"/><path class="cls-2" d="M436.09,130.85V302.28c0,19.29-18.92,34.93-42.25,34.93h-300c-23.33,0-42.25-15.64-42.25-34.93V130.85h70.34V85.27h42.2V42.64H330.59V85.27H374v45.54Z"/><rect class="cls-3" x="372.79" y="272.77" width="34" height="43.12" transform="translate(779.57 588.66) rotate(180)"/><rect class="cls-3" x="331.26" y="272.77" width="34" height="43.12" transform="translate(696.51 588.66) rotate(180)"/><rect class="cls-3" x="289.72" y="272.77" width="34" height="43.12" transform="translate(613.44 588.66) rotate(180)"/><rect class="cls-3" x="248.19" y="272.77" width="34" height="43.12" transform="translate(530.38 588.66) rotate(180)"/><rect class="cls-3" x="206.66" y="272.77" width="34" height="43.12" transform="translate(447.31 588.66) rotate(180)"/><rect class="cls-3" x="165.13" y="272.77" width="34" height="43.12" transform="translate(364.25 588.66) rotate(180)"/><rect class="cls-3" x="123.59" y="272.77" width="34" height="43.12" transform="translate(281.18 588.66) rotate(180)"/><rect class="cls-3" x="82.06" y="272.77" width="34" height="43.12" transform="translate(198.12 588.66) rotate(180)"/><rect class="cls-4" x="372.79" y="259.2" width="34" height="13.57" transform="translate(779.57 531.97) rotate(180)"/><rect class="cls-4" x="331.26" y="259.2" width="34" height="13.57" transform="translate(696.51 531.97) rotate(180)"/><rect class="cls-4" x="289.72" y="259.2" width="34" height="13.57" transform="translate(613.44 531.97) rotate(180)"/><rect class="cls-4" x="248.19" y="259.2" width="34" height="13.57" transform="translate(530.38 531.97) rotate(180)"/><rect class="cls-4" x="206.66" y="259.2" width="34" height="13.57" transform="translate(447.31 531.97) rotate(180)"/><rect class="cls-4" x="165.13" y="259.2" width="34" height="13.57" transform="translate(364.25 531.97) rotate(180)"/><rect class="cls-4" x="123.59" y="259.2" width="34" height="13.57" transform="translate(281.18 531.97) rotate(180)"/><rect class="cls-4" x="82.06" y="259.2" width="34" height="13.57" transform="translate(198.12 531.97) rotate(180)"/></svg>